<svg width="50" height="50" viewBox="0 0 50 50" fill="none" xmlns="http://www.w3.org/2000/svg">
<g id="facebook (1) 1" clip-path="url(#clip0_7_147)">
<path id="Vector" d="M7.32422 50H23.6328V32.2266H17.7734V26.3672H23.6328V19.043C23.6328 15.0043 26.9184 11.7188 30.957 11.7188H38.2812V17.5781H32.4219C30.8064 17.5781 29.4922 18.8923 29.4922 20.5078V26.3672H38.0169L37.0403 32.2266H29.4922V50H42.6758C46.7144 50 50 46.7144 50 42.6758V7.32422C50 3.2856 46.7144 0 42.6758 0H7.32422C3.2856 0 0 3.2856 0 7.32422V42.6758C0 46.7144 3.2856 50 7.32422 50ZM2.92969 7.32422C2.92969 4.90112 4.90112 2.92969 7.32422 2.92969H42.6758C45.0989 2.92969 47.0703 4.90112 47.0703 7.32422V42.6758C47.0703 45.0989 45.0989 47.0703 42.6758 47.0703H32.4219V35.1562H39.5222L41.4753 23.4375H32.4219V20.5078H41.2109V8.78906H30.957C25.3029 8.78906 20.7031 13.3888 20.7031 19.043V23.4375H14.8438V35.1562H20.7031V47.0703H7.32422C4.90112 47.0703 2.92969 45.0989 2.92969 42.6758V7.32422Z" fill="#2E2F22"/>
</g>
<defs>
<clipPath id="clip0_7_147">
<rect width="50" height="50" fill="white"/>
</clipPath>
</defs>
</svg>
