<svg width="50" height="50" viewBox="0 0 50 50" fill="none" xmlns="http://www.w3.org/2000/svg">
<g id="like 1" clip-path="url(#clip0_7_92)">
<g id="Group">
<path id="Vector" d="M47.8435 33.9921C48.8682 32.6851 49.3596 31.284 49.2968 29.8411C49.2341 28.2518 48.5231 27.0075 47.9376 26.2442C48.6172 24.5504 48.8786 21.8841 46.6097 19.8139C44.9472 18.2978 42.1241 17.6182 38.2136 17.8064C35.4637 17.9318 33.1634 18.4442 33.0693 18.4651H33.0589C32.5361 18.5592 31.9819 18.6742 31.4173 18.7997C31.3755 18.1305 31.4905 16.468 32.7243 12.7248C34.1881 8.2706 34.1045 4.86198 32.4524 2.5826C30.7168 0.188206 27.9459 0 27.1304 0C26.3462 0 25.6247 0.324132 25.1124 0.920117C23.9518 2.26892 24.0877 4.75742 24.2341 5.90757C22.8539 9.60895 18.9853 18.6847 15.7126 21.2045C15.6498 21.2463 15.5976 21.2986 15.5453 21.3509C14.5833 22.3651 13.9351 23.463 13.4959 24.4249C12.879 24.0903 12.1785 23.9021 11.4257 23.9021H5.04758C2.64273 23.9021 0.697937 25.8574 0.697937 28.2518V45.2426C0.697937 47.6474 2.65319 49.5922 5.04758 49.5922H11.4257C12.3562 49.5922 13.2241 49.2995 13.9351 48.7976L16.3922 49.0903C16.7686 49.1426 23.4604 49.9895 30.3299 49.8536C31.5741 49.9477 32.7452 50 33.8326 50C35.7042 50 37.3353 49.8536 38.6946 49.5609C41.8941 48.8812 44.0794 47.522 45.1877 45.5249C46.0346 43.9983 46.0346 42.4822 45.8987 41.5203C47.9794 39.6382 48.3454 37.5575 48.2722 36.0937C48.2304 35.2468 48.0421 34.5253 47.8435 33.9921ZM5.04758 46.7691C4.20066 46.7691 3.52102 46.079 3.52102 45.2426V28.2413C3.52102 27.3944 4.21111 26.7148 5.04758 26.7148H11.4257C12.2726 26.7148 12.9522 27.4049 12.9522 28.2413V45.2321C12.9522 46.079 12.2621 46.7587 11.4257 46.7587H5.04758V46.7691ZM45.1668 32.7687C44.7276 33.2288 44.644 33.9293 44.9786 34.473C44.9786 34.4835 45.4073 35.2154 45.4595 36.2192C45.5327 37.5889 44.874 38.8018 43.4938 39.8369C43.0024 40.2133 42.8037 40.8616 43.0129 41.4471C43.0129 41.4575 43.4625 42.8377 42.7306 44.1447C42.03 45.3994 40.4721 46.2986 38.1091 46.8005C36.2165 47.2083 33.6444 47.2815 30.4867 47.0305C30.4449 47.0305 30.3926 47.0305 30.3403 47.0305C23.6172 47.1769 16.8209 46.2986 16.7477 46.2882H16.7372L15.6812 46.1627C15.7439 45.8699 15.7753 45.5563 15.7753 45.2426V28.2413C15.7753 27.7917 15.7021 27.3526 15.5766 26.9448C15.7649 26.2442 16.2876 24.6863 17.5214 23.3584C22.2161 19.6361 26.8063 7.07863 27.0049 6.53492C27.0886 6.31535 27.1095 6.07486 27.0677 5.83438C26.8899 4.66332 26.9526 3.23087 27.2036 2.80217C27.7577 2.81263 29.2529 2.96947 30.1521 4.21372C31.2186 5.688 31.1768 8.32288 30.0267 11.8151C28.2701 17.1372 28.1237 19.9394 29.5143 21.1731C30.2044 21.79 31.1245 21.8214 31.7937 21.5809C32.4315 21.4345 33.038 21.3091 33.613 21.215C33.6549 21.2045 33.7071 21.1941 33.749 21.1836C36.9589 20.4831 42.7096 20.0544 44.7067 21.8737C46.4006 23.4212 45.1981 25.4705 45.0622 25.6901C44.6754 26.2756 44.7904 27.0389 45.3132 27.5094C45.3236 27.5199 46.4215 28.555 46.4738 29.9456C46.5156 30.8762 46.0764 31.8277 45.1668 32.7687Z" fill="#2E2F22"/>
</g>
</g>
<defs>
<clipPath id="clip0_7_92">
<rect width="50" height="50" fill="white"/>
</clipPath>
</defs>
</svg>
