<svg width="50" height="50" viewBox="0 0 50 50" fill="none" xmlns="http://www.w3.org/2000/svg">
<g id="twitter (1) 1" clip-path="url(#clip0_7_149)">
<path id="Vector" d="M50 10.0551C46.8548 10.2001 46.9234 10.1883 46.5679 10.218L48.4306 4.89842C48.4306 4.89842 42.6163 7.03732 41.1423 7.41993C37.2711 3.94055 31.517 3.78681 27.4033 6.3152C24.0345 8.38619 22.2263 11.9426 22.8294 16.0995C16.2731 15.1897 10.7491 12.0819 6.38771 6.84277L5.00832 5.18604L3.97758 7.0789C2.67487 9.47071 2.24228 12.2055 2.75917 14.7792C2.97127 15.8352 3.33176 16.8422 3.8311 17.7852L2.64778 17.3267L2.5074 19.3039C2.36511 21.3123 3.03383 23.6568 4.29649 25.5748C4.65202 26.115 5.10979 26.7082 5.69 27.2934L5.07851 27.1995L5.82466 29.4651C6.80542 32.4417 8.84247 34.7446 11.4861 36.0248C8.8459 37.1452 6.7131 37.8601 3.2074 39.0133L0 40.0676L2.96249 41.6874C4.09203 42.305 8.08334 44.3676 12.027 44.9863C20.7931 46.3611 30.6629 45.2415 37.3074 39.2574C42.9039 34.217 44.7403 27.0473 44.3588 19.5861C44.3012 18.4566 44.6106 17.3786 45.2301 16.5512C46.471 14.8944 49.9924 10.0662 50 10.0551ZM42.8875 14.7964C41.8587 16.1701 41.3433 17.9245 41.4356 19.7357C41.8205 27.2617 39.7728 33.0982 35.3489 37.0823C30.1811 41.7366 21.8456 43.5634 12.4805 42.0944C10.7845 41.8285 9.03168 41.233 7.58095 40.6383C10.5202 39.627 12.7899 38.7256 16.4555 36.9907L21.5725 34.5687L15.9229 34.2071C13.2168 34.0339 10.9634 32.7224 9.57832 30.5931C10.3138 30.5503 11.0229 30.4313 11.729 30.2345L17.1173 28.7338L11.684 27.4032C9.04388 26.7566 7.53899 25.177 6.74133 23.9654C6.21757 23.1693 5.8754 22.3537 5.67017 21.6018C6.2149 21.7479 6.85005 21.8521 7.8743 21.9535L12.9032 22.451L8.91876 19.3428C6.04782 17.1035 4.89731 13.7394 5.74074 10.5053C14.7007 19.7986 25.2209 19.1002 26.2798 19.3458C26.0467 17.0818 26.0406 17.0765 25.9796 16.8609C24.6235 12.067 27.5955 9.63284 28.936 8.80886C31.736 7.08805 36.1805 6.82865 39.2589 9.66374C39.9239 10.2756 40.823 10.5163 41.6645 10.3073C42.4198 10.1196 43.0397 9.92085 43.6466 9.70455L42.3832 13.3125L43.996 13.3136C43.6916 13.7218 43.3266 14.2105 42.8875 14.7964Z" fill="#2E2F22"/>
</g>
<defs>
<clipPath id="clip0_7_149">
<rect width="50" height="50" fill="white"/>
</clipPath>
</defs>
</svg>
