<svg width="50" height="50" viewBox="0 0 50 50" fill="none" xmlns="http://www.w3.org/2000/svg">
<g id="vk 1" clip-path="url(#clip0_7_145)">
<path id="Vector" d="M44.5058 29.8928L44.4787 29.8676C44.0518 29.4736 42.7441 28.201 42.3032 27.6448C41.7855 26.9509 41.9049 26.4962 42.2929 25.8149C42.7831 24.9539 43.7653 23.6332 44.8048 22.2348C48.1343 17.7571 50.2839 14.6572 49.8414 12.4554L49.603 11.2793L37.307 11.2847C37.2639 11.4006 36.6223 14.2193 33.9146 19.019C31.9512 22.4991 30.6634 23.5924 30.2098 23.7854L30.1396 23.7641C29.992 23.5817 29.7341 23.0896 29.628 21.8213C29.5174 20.4926 29.6155 18.8839 29.7104 17.3283C29.8215 15.5041 29.9172 13.9286 29.6879 12.8014L29.3145 10.965C28.8632 10.8929 27.2111 10.2555 22.6078 10.207C18.6226 10.1662 17.4519 10.7418 16.877 11.2492L14.9754 12.9273L17.379 13.736C18.2938 14.0438 18.5974 14.399 18.8465 16.1595C19.0091 17.3069 19.0941 19.2353 18.9186 20.9568C18.6665 23.4253 18.0619 23.8846 18.0306 23.909C17.9264 23.8736 17.0433 23.4871 15.5102 20.2458C14.4467 17.9978 13.5144 15.3385 12.833 13.3969C12.0533 11.1733 12.1937 11.6467 11.7981 10.5961L-0.0976562 10.5957L0.672151 12.587C3.88146 20.8966 6.82603 27.3858 10.7666 32.0466C15.1203 37.196 20.5311 39.8923 27.8195 39.8923H29.2843V38.4274C29.2843 37.058 29.3976 36.0719 29.6406 35.3242C29.789 34.8687 29.9862 34.4922 30.1934 34.0974C30.5009 33.516 30.8015 33.2669 30.9655 33.2299C31.1143 33.1959 31.3759 33.305 31.6659 33.5213C32.4982 34.142 33.1589 34.9576 33.8586 35.8212C34.8679 37.0675 35.9116 38.3557 37.5676 39.1991C38.4724 39.66 40.1311 39.8927 41.0439 39.8927C41.2854 39.8927 49.8918 39.8923 49.9024 39.8923L49.8395 38.3672C49.7457 36.0867 47.9508 33.2352 44.5058 29.8928ZM41.1008 36.9626H41.0771C40.4477 36.9729 39.2464 36.7665 38.897 36.5887C37.7961 36.028 37.0267 35.0777 36.1352 33.9776C35.3528 33.0113 34.5437 32.0122 33.4172 31.1726C32.5062 30.4932 31.6788 30.2945 31.0219 30.2945C30.7595 30.2945 30.5237 30.3261 30.3216 30.3719C29.559 30.5436 28.4684 31.0921 27.6013 32.7321C27.3568 33.1986 27.0794 33.727 26.8548 34.4182C26.6194 35.1414 26.4729 35.9452 26.4031 36.9229C20.9107 36.6109 16.6249 34.438 13.0039 30.1552C9.63747 26.1731 6.98892 20.6032 4.18397 13.5243C4.38691 13.5243 9.47229 13.525 9.77251 13.525C9.86444 13.7833 9.96363 14.0663 10.0689 14.3662C10.8032 16.4608 11.8092 19.3291 12.9944 21.7751C14.6916 25.2778 16.2415 26.8399 18.0195 26.8399C18.9072 26.8399 19.7033 26.4638 20.3217 25.7515C21.2033 24.7365 21.7152 23.061 21.8869 20.6292C22.0223 18.7115 21.8964 16.8015 21.7476 15.749C21.6248 14.8831 21.4497 13.974 21.0225 13.1596C22.8432 13.0776 25.2812 13.2073 26.8258 13.4289C26.9661 14.1934 26.8746 15.696 26.7861 17.1498C26.5721 20.6616 26.3512 24.2856 28.2101 25.9812C28.537 26.2795 28.8838 26.4393 28.8937 26.4458L29.8398 26.7361C30.2048 26.6236 32.3193 27.6963 36.3232 20.7089C37.6061 18.47 38.8005 15.8902 39.4437 14.2052C40.9352 14.2021 46.0168 14.2079 46.6138 14.2086C45.7681 16.0698 43.7638 18.7245 42.4538 20.4865C41.3117 22.0223 40.3256 23.3487 39.7469 24.3649C38.6719 26.2528 38.8528 27.9355 39.9724 29.4198L39.9899 29.4427C40.6148 30.238 42.1578 31.7105 42.4779 32.0073C44.7965 34.2583 45.9138 35.8754 46.4456 36.9622H41.1008V36.9626Z" fill="#2E2F22"/>
</g>
<defs>
<clipPath id="clip0_7_145">
<rect width="50" height="49.9024" fill="white"/>
</clipPath>
</defs>
</svg>
